<mxfile host="drawio-plugin" modified="2023-02-08T02:28:52.501Z" agent="5.0 (Macintosh; Intel Mac OS X 10_15_7) AppleWebKit/537.36 (KHTML, like Gecko) Chrome/98.0.4758.102 Safari/537.36" etag="eykOmeESbkBGfn9zWPWY" version="20.5.3" type="embed"><diagram name="第 1 页" id="1xhARefTsMV7obLJjW39"><mxGraphModel dx="1270" dy="497" grid="1" gridSize="10" guides="1" tooltips="1" connect="1" arrows="1" fold="1" page="1" pageScale="1" pageWidth="827" pageHeight="1169" math="0" shadow="0"><root><mxCell id="0"/><mxCell id="1" parent="0"/><mxCell id="AzQGeKjhrUklUjJpze0W-1" value="User" style="shape=table;startSize=30;container=1;collapsible=1;childLayout=tableLayout;fixedRows=1;rowLines=0;fontStyle=1;align=center;resizeLast=1;fillColor=#dae8fc;strokeColor=#6c8ebf;" parent="1" vertex="1"><mxGeometry x="-790" y="250" width="180" height="140" as="geometry"/></mxCell><mxCell id="AzQGeKjhrUklUjJpze0W-2" value="" style="shape=tableRow;horizontal=0;startSize=0;swimlaneHead=0;swimlaneBody=0;fillColor=#dae8fc;collapsible=0;dropTarget=0;points=[[0,0.5],[1,0.5]];portConstraint=eastwest;top=0;left=0;right=0;bottom=1;strokeColor=#6c8ebf;" parent="AzQGeKjhrUklUjJpze0W-1" vertex="1"><mxGeometry y="30" width="180" height="20" as="geometry"/></mxCell><mxCell id="AzQGeKjhrUklUjJpze0W-3" value="PK" style="shape=partialRectangle;connectable=0;fillColor=#dae8fc;top=0;left=0;bottom=0;right=0;fontStyle=1;overflow=hidden;strokeColor=#6c8ebf;" parent="AzQGeKjhrUklUjJpze0W-2" vertex="1"><mxGeometry width="30" height="20" as="geometry"><mxRectangle width="30" height="20" as="alternateBounds"/></mxGeometry></mxCell><mxCell id="AzQGeKjhrUklUjJpze0W-4" value="user_id" style="shape=partialRectangle;connectable=0;fillColor=#dae8fc;top=0;left=0;bottom=0;right=0;align=left;spacingLeft=6;fontStyle=5;overflow=hidden;strokeColor=#6c8ebf;" parent="AzQGeKjhrUklUjJpze0W-2" vertex="1"><mxGeometry x="30" width="150" height="20" as="geometry"><mxRectangle width="150" height="20" as="alternateBounds"/></mxGeometry></mxCell><mxCell id="AzQGeKjhrUklUjJpze0W-5" value="" style="shape=tableRow;horizontal=0;startSize=0;swimlaneHead=0;swimlaneBody=0;fillColor=#dae8fc;collapsible=0;dropTarget=0;points=[[0,0.5],[1,0.5]];portConstraint=eastwest;top=0;left=0;right=0;bottom=0;strokeColor=#6c8ebf;" parent="AzQGeKjhrUklUjJpze0W-1" vertex="1"><mxGeometry y="50" width="180" height="30" as="geometry"/></mxCell><mxCell id="AzQGeKjhrUklUjJpze0W-6" value="" style="shape=partialRectangle;connectable=0;fillColor=#dae8fc;top=0;left=0;bottom=0;right=0;editable=1;overflow=hidden;strokeColor=#6c8ebf;" parent="AzQGeKjhrUklUjJpze0W-5" vertex="1"><mxGeometry width="30" height="30" as="geometry"><mxRectangle width="30" height="30" as="alternateBounds"/></mxGeometry></mxCell><mxCell id="AzQGeKjhrUklUjJpze0W-7" value="Username" style="shape=partialRectangle;connectable=0;fillColor=#dae8fc;top=0;left=0;bottom=0;right=0;align=left;spacingLeft=6;overflow=hidden;strokeColor=#6c8ebf;" parent="AzQGeKjhrUklUjJpze0W-5" vertex="1"><mxGeometry x="30" width="150" height="30" as="geometry"><mxRectangle width="150" height="30" as="alternateBounds"/></mxGeometry></mxCell><mxCell id="AzQGeKjhrUklUjJpze0W-8" value="" style="shape=tableRow;horizontal=0;startSize=0;swimlaneHead=0;swimlaneBody=0;fillColor=#dae8fc;collapsible=0;dropTarget=0;points=[[0,0.5],[1,0.5]];portConstraint=eastwest;top=0;left=0;right=0;bottom=0;strokeColor=#6c8ebf;" parent="AzQGeKjhrUklUjJpze0W-1" vertex="1"><mxGeometry y="80" width="180" height="30" as="geometry"/></mxCell><mxCell id="AzQGeKjhrUklUjJpze0W-9" value="" style="shape=partialRectangle;connectable=0;fillColor=#dae8fc;top=0;left=0;bottom=0;right=0;editable=1;overflow=hidden;strokeColor=#6c8ebf;" parent="AzQGeKjhrUklUjJpze0W-8" vertex="1"><mxGeometry width="30" height="30" as="geometry"><mxRectangle width="30" height="30" as="alternateBounds"/></mxGeometry></mxCell><mxCell id="AzQGeKjhrUklUjJpze0W-10" value="Password" style="shape=partialRectangle;connectable=0;fillColor=#dae8fc;top=0;left=0;bottom=0;right=0;align=left;spacingLeft=6;overflow=hidden;strokeColor=#6c8ebf;" parent="AzQGeKjhrUklUjJpze0W-8" vertex="1"><mxGeometry x="30" width="150" height="30" as="geometry"><mxRectangle width="150" height="30" as="alternateBounds"/></mxGeometry></mxCell><mxCell id="AzQGeKjhrUklUjJpze0W-11" value="" style="shape=tableRow;horizontal=0;startSize=0;swimlaneHead=0;swimlaneBody=0;fillColor=#dae8fc;collapsible=0;dropTarget=0;points=[[0,0.5],[1,0.5]];portConstraint=eastwest;top=0;left=0;right=0;bottom=0;strokeColor=#6c8ebf;" parent="AzQGeKjhrUklUjJpze0W-1" vertex="1"><mxGeometry y="110" width="180" height="30" as="geometry"/></mxCell><mxCell id="AzQGeKjhrUklUjJpze0W-12" value="" style="shape=partialRectangle;connectable=0;fillColor=#dae8fc;top=0;left=0;bottom=0;right=0;editable=1;overflow=hidden;strokeColor=#6c8ebf;" parent="AzQGeKjhrUklUjJpze0W-11" vertex="1"><mxGeometry width="30" height="30" as="geometry"><mxRectangle width="30" height="30" as="alternateBounds"/></mxGeometry></mxCell><mxCell id="AzQGeKjhrUklUjJpze0W-13" value="Name" style="shape=partialRectangle;connectable=0;fillColor=#dae8fc;top=0;left=0;bottom=0;right=0;align=left;spacingLeft=6;overflow=hidden;strokeColor=#6c8ebf;" parent="AzQGeKjhrUklUjJpze0W-11" vertex="1"><mxGeometry x="30" width="150" height="30" as="geometry"><mxRectangle width="150" height="30" as="alternateBounds"/></mxGeometry></mxCell><mxCell id="AzQGeKjhrUklUjJpze0W-15" value="Like" style="shape=table;startSize=30;container=1;collapsible=1;childLayout=tableLayout;fixedRows=1;rowLines=0;fontStyle=1;align=center;resizeLast=1;fillColor=#dae8fc;strokeColor=#6c8ebf;" parent="1" vertex="1"><mxGeometry x="-530" y="440" width="180" height="90" as="geometry"><mxRectangle x="440" y="190" width="60" height="30" as="alternateBounds"/></mxGeometry></mxCell><mxCell id="AzQGeKjhrUklUjJpze0W-16" value="" style="shape=tableRow;horizontal=0;startSize=0;swimlaneHead=0;swimlaneBody=0;fillColor=#dae8fc;collapsible=0;dropTarget=0;points=[[0,0.5],[1,0.5]];portConstraint=eastwest;top=0;left=0;right=0;bottom=1;strokeColor=#6c8ebf;" parent="AzQGeKjhrUklUjJpze0W-15" vertex="1"><mxGeometry y="30" width="180" height="30" as="geometry"/></mxCell><mxCell id="AzQGeKjhrUklUjJpze0W-17" value="FK" style="shape=partialRectangle;connectable=0;fillColor=#dae8fc;top=0;left=0;bottom=0;right=0;fontStyle=1;overflow=hidden;strokeColor=#6c8ebf;" parent="AzQGeKjhrUklUjJpze0W-16" vertex="1"><mxGeometry width="30" height="30" as="geometry"><mxRectangle width="30" height="30" as="alternateBounds"/></mxGeometry></mxCell><mxCell id="AzQGeKjhrUklUjJpze0W-18" value="User ID" style="shape=partialRectangle;connectable=0;fillColor=#dae8fc;top=0;left=0;bottom=0;right=0;align=left;spacingLeft=6;fontStyle=5;overflow=hidden;strokeColor=#6c8ebf;" parent="AzQGeKjhrUklUjJpze0W-16" vertex="1"><mxGeometry x="30" width="150" height="30" as="geometry"><mxRectangle width="150" height="30" as="alternateBounds"/></mxGeometry></mxCell><mxCell id="AzQGeKjhrUklUjJpze0W-19" value="" style="shape=tableRow;horizontal=0;startSize=0;swimlaneHead=0;swimlaneBody=0;fillColor=#dae8fc;collapsible=0;dropTarget=0;points=[[0,0.5],[1,0.5]];portConstraint=eastwest;top=0;left=0;right=0;bottom=0;strokeColor=#6c8ebf;" parent="AzQGeKjhrUklUjJpze0W-15" vertex="1"><mxGeometry y="60" width="180" height="30" as="geometry"/></mxCell><mxCell id="AzQGeKjhrUklUjJpze0W-20" value="" style="shape=partialRectangle;connectable=0;fillColor=#dae8fc;top=0;left=0;bottom=0;right=0;editable=1;overflow=hidden;strokeColor=#6c8ebf;" parent="AzQGeKjhrUklUjJpze0W-19" vertex="1"><mxGeometry width="30" height="30" as="geometry"><mxRectangle width="30" height="30" as="alternateBounds"/></mxGeometry></mxCell><mxCell id="AzQGeKjhrUklUjJpze0W-21" value="video_id" style="shape=partialRectangle;connectable=0;fillColor=#dae8fc;top=0;left=0;bottom=0;right=0;align=left;spacingLeft=6;overflow=hidden;strokeColor=#6c8ebf;" parent="AzQGeKjhrUklUjJpze0W-19" vertex="1"><mxGeometry x="30" width="150" height="30" as="geometry"><mxRectangle width="150" height="30" as="alternateBounds"/></mxGeometry></mxCell><mxCell id="AzQGeKjhrUklUjJpze0W-28" style="edgeStyle=orthogonalEdgeStyle;rounded=0;orthogonalLoop=1;jettySize=auto;html=1;" parent="1" source="AzQGeKjhrUklUjJpze0W-2" target="AzQGeKjhrUklUjJpze0W-16" edge="1"><mxGeometry relative="1" as="geometry"/></mxCell><mxCell id="AzQGeKjhrUklUjJpze0W-29" value="Video" style="shape=table;startSize=30;container=1;collapsible=1;childLayout=tableLayout;fixedRows=1;rowLines=0;fontStyle=1;align=center;resizeLast=1;fillColor=#fff2cc;strokeColor=#d6b656;" parent="1" vertex="1"><mxGeometry x="-530" y="40" width="180" height="150" as="geometry"/></mxCell><mxCell id="AzQGeKjhrUklUjJpze0W-30" value="" style="shape=tableRow;horizontal=0;startSize=0;swimlaneHead=0;swimlaneBody=0;fillColor=#fff2cc;collapsible=0;dropTarget=0;points=[[0,0.5],[1,0.5]];portConstraint=eastwest;top=0;left=0;right=0;bottom=1;strokeColor=#d6b656;" parent="AzQGeKjhrUklUjJpze0W-29" vertex="1"><mxGeometry y="30" width="180" height="60" as="geometry"/></mxCell><mxCell id="AzQGeKjhrUklUjJpze0W-31" value="PK" style="shape=partialRectangle;connectable=0;fillColor=#fff2cc;top=0;left=0;bottom=0;right=0;fontStyle=1;overflow=hidden;strokeColor=#d6b656;" parent="AzQGeKjhrUklUjJpze0W-30" vertex="1"><mxGeometry width="30" height="60" as="geometry"><mxRectangle width="30" height="60" as="alternateBounds"/></mxGeometry></mxCell><mxCell id="AzQGeKjhrUklUjJpze0W-32" value="video_id" style="shape=partialRectangle;connectable=0;fillColor=#fff2cc;top=0;left=0;bottom=0;right=0;align=left;spacingLeft=6;fontStyle=5;overflow=hidden;strokeColor=#d6b656;" parent="AzQGeKjhrUklUjJpze0W-30" vertex="1"><mxGeometry x="30" width="150" height="60" as="geometry"><mxRectangle width="150" height="60" as="alternateBounds"/></mxGeometry></mxCell><mxCell id="AzQGeKjhrUklUjJpze0W-84" value="" style="shape=tableRow;horizontal=0;startSize=0;swimlaneHead=0;swimlaneBody=0;fillColor=#fff2cc;collapsible=0;dropTarget=0;points=[[0,0.5],[1,0.5]];portConstraint=eastwest;top=0;left=0;right=0;bottom=0;strokeColor=#d6b656;" parent="AzQGeKjhrUklUjJpze0W-29" vertex="1"><mxGeometry y="90" width="180" height="30" as="geometry"/></mxCell><mxCell id="AzQGeKjhrUklUjJpze0W-85" value="FK" style="shape=partialRectangle;connectable=0;fillColor=#fff2cc;top=0;left=0;bottom=0;right=0;fontStyle=0;overflow=hidden;strokeColor=#d6b656;" parent="AzQGeKjhrUklUjJpze0W-84" vertex="1"><mxGeometry width="30" height="30" as="geometry"><mxRectangle width="30" height="30" as="alternateBounds"/></mxGeometry></mxCell><mxCell id="AzQGeKjhrUklUjJpze0W-86" value="user_id" style="shape=partialRectangle;connectable=0;fillColor=#fff2cc;top=0;left=0;bottom=0;right=0;align=left;spacingLeft=6;fontStyle=0;overflow=hidden;strokeColor=#d6b656;" parent="AzQGeKjhrUklUjJpze0W-84" vertex="1"><mxGeometry x="30" width="150" height="30" as="geometry"><mxRectangle width="150" height="30" as="alternateBounds"/></mxGeometry></mxCell><mxCell id="AzQGeKjhrUklUjJpze0W-36" value="" style="shape=tableRow;horizontal=0;startSize=0;swimlaneHead=0;swimlaneBody=0;fillColor=#fff2cc;collapsible=0;dropTarget=0;points=[[0,0.5],[1,0.5]];portConstraint=eastwest;top=0;left=0;right=0;bottom=0;strokeColor=#d6b656;" parent="AzQGeKjhrUklUjJpze0W-29" vertex="1"><mxGeometry y="120" width="180" height="30" as="geometry"/></mxCell><mxCell id="AzQGeKjhrUklUjJpze0W-37" value="" style="shape=partialRectangle;connectable=0;fillColor=#fff2cc;top=0;left=0;bottom=0;right=0;editable=1;overflow=hidden;strokeColor=#d6b656;" parent="AzQGeKjhrUklUjJpze0W-36" vertex="1"><mxGeometry width="30" height="30" as="geometry"><mxRectangle width="30" height="30" as="alternateBounds"/></mxGeometry></mxCell><mxCell id="AzQGeKjhrUklUjJpze0W-38" value="title" style="shape=partialRectangle;connectable=0;fillColor=#fff2cc;top=0;left=0;bottom=0;right=0;align=left;spacingLeft=6;overflow=hidden;strokeColor=#d6b656;" parent="AzQGeKjhrUklUjJpze0W-36" vertex="1"><mxGeometry x="30" width="150" height="30" as="geometry"><mxRectangle width="150" height="30" as="alternateBounds"/></mxGeometry></mxCell><mxCell id="AzQGeKjhrUklUjJpze0W-42" value="Comment" style="shape=table;startSize=30;container=1;collapsible=1;childLayout=tableLayout;fixedRows=1;rowLines=0;fontStyle=1;align=center;resizeLast=1;movable=1;resizable=1;rotatable=1;deletable=1;editable=1;locked=0;connectable=1;fillColor=#d5e8d4;strokeColor=#82b366;" parent="1" vertex="1"><mxGeometry x="-260" y="170" width="180" height="170" as="geometry"/></mxCell><mxCell id="AzQGeKjhrUklUjJpze0W-43" value="" style="shape=tableRow;horizontal=0;startSize=0;swimlaneHead=0;swimlaneBody=0;fillColor=#d5e8d4;collapsible=0;dropTarget=0;points=[[0,0.5],[1,0.5]];portConstraint=eastwest;top=0;left=0;right=0;bottom=1;movable=1;resizable=1;rotatable=1;deletable=1;editable=1;locked=0;connectable=1;strokeColor=#82b366;" parent="AzQGeKjhrUklUjJpze0W-42" vertex="1"><mxGeometry y="30" width="180" height="50" as="geometry"/></mxCell><mxCell id="AzQGeKjhrUklUjJpze0W-44" value="PK" style="shape=partialRectangle;connectable=1;fillColor=#d5e8d4;top=0;left=0;bottom=0;right=0;fontStyle=1;overflow=hidden;movable=1;resizable=1;rotatable=1;deletable=1;editable=1;locked=0;strokeColor=#82b366;" parent="AzQGeKjhrUklUjJpze0W-43" vertex="1"><mxGeometry width="30" height="50" as="geometry"><mxRectangle width="30" height="50" as="alternateBounds"/></mxGeometry></mxCell><mxCell id="AzQGeKjhrUklUjJpze0W-45" value="comment_id" style="shape=partialRectangle;connectable=1;fillColor=#d5e8d4;top=0;left=0;bottom=0;right=0;align=left;spacingLeft=6;fontStyle=5;overflow=hidden;movable=1;resizable=1;rotatable=1;deletable=1;editable=1;locked=0;strokeColor=#82b366;" parent="AzQGeKjhrUklUjJpze0W-43" vertex="1"><mxGeometry x="30" width="150" height="50" as="geometry"><mxRectangle width="150" height="50" as="alternateBounds"/></mxGeometry></mxCell><mxCell id="AzQGeKjhrUklUjJpze0W-87" value="" style="shape=tableRow;horizontal=0;startSize=0;swimlaneHead=0;swimlaneBody=0;fillColor=#d5e8d4;collapsible=0;dropTarget=0;points=[[0,0.5],[1,0.5]];portConstraint=eastwest;top=0;left=0;right=0;bottom=0;strokeColor=#82b366;" parent="AzQGeKjhrUklUjJpze0W-42" vertex="1"><mxGeometry y="80" width="180" height="30" as="geometry"/></mxCell><mxCell id="AzQGeKjhrUklUjJpze0W-88" value="FK" style="shape=partialRectangle;connectable=0;fillColor=#d5e8d4;top=0;left=0;bottom=0;right=0;fontStyle=0;overflow=hidden;strokeColor=#82b366;" parent="AzQGeKjhrUklUjJpze0W-87" vertex="1"><mxGeometry width="30" height="30" as="geometry"><mxRectangle width="30" height="30" as="alternateBounds"/></mxGeometry></mxCell><mxCell id="AzQGeKjhrUklUjJpze0W-89" value="vide_id" style="shape=partialRectangle;connectable=0;fillColor=#d5e8d4;top=0;left=0;bottom=0;right=0;align=left;spacingLeft=6;fontStyle=0;overflow=hidden;strokeColor=#82b366;" parent="AzQGeKjhrUklUjJpze0W-87" vertex="1"><mxGeometry x="30" width="150" height="30" as="geometry"><mxRectangle width="150" height="30" as="alternateBounds"/></mxGeometry></mxCell><mxCell id="AzQGeKjhrUklUjJpze0W-90" value="" style="shape=tableRow;horizontal=0;startSize=0;swimlaneHead=0;swimlaneBody=0;fillColor=#d5e8d4;collapsible=0;dropTarget=0;points=[[0,0.5],[1,0.5]];portConstraint=eastwest;top=0;left=0;right=0;bottom=0;strokeColor=#82b366;" parent="AzQGeKjhrUklUjJpze0W-42" vertex="1"><mxGeometry y="110" width="180" height="30" as="geometry"/></mxCell><mxCell id="AzQGeKjhrUklUjJpze0W-91" value="FK" style="shape=partialRectangle;connectable=0;fillColor=#d5e8d4;top=0;left=0;bottom=0;right=0;fontStyle=0;overflow=hidden;strokeColor=#82b366;" parent="AzQGeKjhrUklUjJpze0W-90" vertex="1"><mxGeometry width="30" height="30" as="geometry"><mxRectangle width="30" height="30" as="alternateBounds"/></mxGeometry></mxCell><mxCell id="AzQGeKjhrUklUjJpze0W-92" value="user_id" style="shape=partialRectangle;connectable=0;fillColor=#d5e8d4;top=0;left=0;bottom=0;right=0;align=left;spacingLeft=6;fontStyle=0;overflow=hidden;strokeColor=#82b366;" parent="AzQGeKjhrUklUjJpze0W-90" vertex="1"><mxGeometry x="30" width="150" height="30" as="geometry"><mxRectangle width="150" height="30" as="alternateBounds"/></mxGeometry></mxCell><mxCell id="AzQGeKjhrUklUjJpze0W-46" value="" style="shape=tableRow;horizontal=0;startSize=0;swimlaneHead=0;swimlaneBody=0;fillColor=#d5e8d4;collapsible=0;dropTarget=0;points=[[0,0.5],[1,0.5]];portConstraint=eastwest;top=0;left=0;right=0;bottom=0;movable=1;resizable=1;rotatable=1;deletable=1;editable=1;locked=0;connectable=1;strokeColor=#82b366;" parent="AzQGeKjhrUklUjJpze0W-42" vertex="1"><mxGeometry y="140" width="180" height="30" as="geometry"/></mxCell><mxCell id="AzQGeKjhrUklUjJpze0W-47" value="" style="shape=partialRectangle;connectable=1;fillColor=#d5e8d4;top=0;left=0;bottom=0;right=0;editable=1;overflow=hidden;movable=1;resizable=1;rotatable=1;deletable=1;locked=0;strokeColor=#82b366;" parent="AzQGeKjhrUklUjJpze0W-46" vertex="1"><mxGeometry width="30" height="30" as="geometry"><mxRectangle width="30" height="30" as="alternateBounds"/></mxGeometry></mxCell><mxCell id="AzQGeKjhrUklUjJpze0W-48" value="comment_text" style="shape=partialRectangle;connectable=1;fillColor=#d5e8d4;top=0;left=0;bottom=0;right=0;align=left;spacingLeft=6;overflow=hidden;movable=1;resizable=1;rotatable=1;deletable=1;editable=1;locked=0;strokeColor=#82b366;" parent="AzQGeKjhrUklUjJpze0W-46" vertex="1"><mxGeometry x="30" width="150" height="30" as="geometry"><mxRectangle width="150" height="30" as="alternateBounds"/></mxGeometry></mxCell><mxCell id="AzQGeKjhrUklUjJpze0W-94" style="edgeStyle=orthogonalEdgeStyle;rounded=0;orthogonalLoop=1;jettySize=auto;html=1;exitX=1;exitY=0.5;exitDx=0;exitDy=0;" parent="1" source="AzQGeKjhrUklUjJpze0W-30" target="AzQGeKjhrUklUjJpze0W-87" edge="1"><mxGeometry relative="1" as="geometry"/></mxCell><mxCell id="AzQGeKjhrUklUjJpze0W-95" style="edgeStyle=orthogonalEdgeStyle;rounded=0;orthogonalLoop=1;jettySize=auto;html=1;exitX=1;exitY=0.5;exitDx=0;exitDy=0;entryX=0;entryY=0.5;entryDx=0;entryDy=0;" parent="1" source="AzQGeKjhrUklUjJpze0W-2" target="AzQGeKjhrUklUjJpze0W-90" edge="1"><mxGeometry relative="1" as="geometry"/></mxCell><mxCell id="AzQGeKjhrUklUjJpze0W-96" style="edgeStyle=orthogonalEdgeStyle;rounded=0;orthogonalLoop=1;jettySize=auto;html=1;" parent="1" source="AzQGeKjhrUklUjJpze0W-2" target="AzQGeKjhrUklUjJpze0W-84" edge="1"><mxGeometry relative="1" as="geometry"/></mxCell></root></mxGraphModel></diagram></mxfile>